<?xml version="1.0" encoding="iso-8859-1"?>
<!-- Generator: Adobe Illustrator 19.0.0, SVG Export Plug-In . SVG Version: 6.00 Build 0)  -->
<svg version="1.1" id="Layer_1" xmlns="http://www.w3.org/2000/svg" xmlns:xlink="http://www.w3.org/1999/xlink" x="0px" y="0px"
	 viewBox="0 0 504 504" style="enable-background:new 0 0 504 504;" xml:space="preserve">
<circle style="fill:#84DBFF;" cx="252" cy="252" r="252"/>
<rect x="255.5" y="168.4" style="fill:#324A5E;" width="24.5" height="224.4"/>
<path style="fill:#FFD05B;" d="M375.9,176.2c-1-58.9-49-106.3-108.2-106.3c-59.1,0-107.1,47.4-108.2,106.3H375.9z"/>
<path style="fill:#FFFFFF;" d="M305.4,176.2c-0.4-58.9-17.1-106.3-37.7-106.3s-37.3,47.4-37.7,106.3H305.4z"/>
<g>
	<path style="fill:#F9B54C;" d="M194.8,215.7L194.8,215.7c-19.5,0-35.2-15.8-35.2-35.2v-4.3H230v4.3
		C230,199.9,214.2,215.7,194.8,215.7z"/>
	<path style="fill:#F9B54C;" d="M340.6,215.7L340.6,215.7c-19.5,0-35.2-15.8-35.2-35.2v-4.3h70.5v4.3
		C375.9,199.9,360.1,215.7,340.6,215.7z"/>
</g>
<path style="fill:#E6E9EE;" d="M296.4,215.7H239c-4.9,0-8.9-4-8.9-8.9v-30.6h75.4v30.6C305.4,211.7,301.4,215.7,296.4,215.7z"/>
<polygon style="fill:#FF7058;" points="362.5,392.8 399.4,392.8 364.2,335.5 395.4,335.5 395.4,304 160.6,304 107.7,218.5 
	80.9,235.1 143,335.5 174.6,335.5 139.4,392.8 176.3,392.8 211.5,335.5 327.3,335.5 "/>
<g>
</g>
<g>
</g>
<g>
</g>
<g>
</g>
<g>
</g>
<g>
</g>
<g>
</g>
<g>
</g>
<g>
</g>
<g>
</g>
<g>
</g>
<g>
</g>
<g>
</g>
<g>
</g>
<g>
</g>
</svg>
