<?xml version="1.0" encoding="iso-8859-1"?>
<!-- Generator: Adobe Illustrator 19.0.0, SVG Export Plug-In . SVG Version: 6.00 Build 0)  -->
<svg version="1.1" id="Layer_1" xmlns="http://www.w3.org/2000/svg" xmlns:xlink="http://www.w3.org/1999/xlink" x="0px" y="0px"
	 viewBox="0 0 473.961 473.961" style="enable-background:new 0 0 473.961 473.961;" xml:space="preserve">
<circle style="fill:#C4E2E7;" cx="236.994" cy="236.981" r="236.967"/>
<path style="fill:#A2D4DE;" d="M0,236.969c0-21.904,122.297-58.855,240.343-58.933c118.925-0.079,233.615,36.872,233.615,58.933
	c0,130.877-106.098,236.975-236.982,236.975C106.102,473.948,0,367.846,0,236.969z"/>
<g>
	<path style="fill:#E9C29C;" d="M287.972,165.452c0,28.232-22.874,51.098-51.09,51.098s-51.09-22.866-51.09-51.098
		c0-28.209,22.874-51.09,51.09-51.09S287.972,137.243,287.972,165.452z"/>
	<path style="fill:#E9C29C;" d="M247.01,205.927c0.236-0.98,1.22-1.572,2.193-1.343c0.153,0.037,7.813,1.804,17.306,2.492
		c12.468-8.894,20.763-23.233,21.414-39.551c-4.026-0.176-8.741,0.269-13.994,0.767c-5.108,0.483-10.904,1.021-16.875,1.021
		c-1.003,0-1.818-0.812-1.818-1.819c0-1.003,0.819-1.819,1.818-1.819c5.804,0,11.255-0.513,16.524-1.014
		c5.182-0.483,10.035-0.935,14.361-0.76c-0.827-27.495-23.36-49.541-51.057-49.541c-28.217,0-51.09,22.881-51.09,51.09
		c0,28.232,22.874,51.098,51.09,51.098c8.887,0,17.238-2.271,24.52-6.264c-7.192-0.812-12.49-2.039-13.044-2.163
		C247.377,207.884,246.778,206.904,247.01,205.927z"/>
	<path style="fill:#E9C29C;" d="M249.203,204.58c-0.973-0.228-1.957,0.367-2.193,1.343s0.367,1.957,1.343,2.2
		c0.554,0.123,5.852,1.351,13.044,2.163c1.77-0.973,3.48-2.054,5.108-3.214C257.016,206.388,249.356,204.618,249.203,204.58z"/>
</g>
<ellipse style="fill:#343433;" cx="256.152" cy="169.853" rx="7.001" ry="7.398"/>
<path style="fill:#FFFFFF;" d="M261.139,167.061c0,1.624-1.25,2.952-2.799,2.952c-1.534,0-2.791-1.328-2.791-2.952
	c0-1.643,1.257-2.96,2.791-2.96C259.89,164.102,261.139,165.415,261.139,167.061z"/>
<ellipse style="fill:#343433;" cx="217.91" cy="169.853" rx="7.001" ry="7.398"/>
<path style="fill:#FFFFFF;" d="M222.835,167.061c0,1.624-1.25,2.952-2.799,2.952c-1.542,0-2.799-1.328-2.799-2.952
	c0-1.643,1.257-2.96,2.799-2.96C221.585,164.102,222.835,165.415,222.835,167.061z"/>
<path style="fill:#6B491E;" d="M287.972,165.452l-34.84-31.345c0,0-16.378,0.76-36.161,9.699
	c-19.076,8.632-31.184,21.646-31.184,21.646c0-28.209,22.874-51.09,51.09-51.09S287.972,137.243,287.972,165.452z"/>
<path style="fill:#525252;" d="M300.705,168.188c-3.282-2.99-7.659-4.079-12.767-4.288c0.007,0.52,0.037,1.036,0.037,1.557
	c0,0.696-0.03,1.381-0.052,2.069c4.296,0.183,7.813,1.066,10.327,3.36c3.341,3.035,4.954,8.673,4.954,17.253
	c0,5.751-1.949,10.092-5.957,13.265c-0.453,0.359-0.928,0.696-1.411,1.01c-0.161,0.101-0.329,0.191-0.498,0.292
	c-0.337,0.206-0.674,0.415-1.029,0.606c-0.206,0.109-0.408,0.206-0.621,0.307c-0.329,0.168-0.659,0.329-1.003,0.483
	c-0.228,0.094-0.468,0.191-0.703,0.284c-0.337,0.138-0.674,0.284-1.014,0.408c-0.24,0.086-0.498,0.168-0.745,0.247
	c-0.344,0.123-0.696,0.236-1.051,0.344c-0.254,0.079-0.52,0.146-0.782,0.221c-0.359,0.094-0.715,0.198-1.089,0.284
	c-0.254,0.067-0.528,0.123-0.79,0.183c-0.382,0.079-0.76,0.161-1.141,0.239c-0.262,0.052-0.535,0.094-0.804,0.146
	c-0.389,0.067-0.782,0.131-1.175,0.191c-0.262,0.045-0.535,0.075-0.797,0.116c-0.408,0.052-0.819,0.101-1.235,0.146
	c-0.254,0.03-0.513,0.06-0.767,0.086c-0.43,0.037-0.861,0.075-1.295,0.109c-0.247,0.022-0.498,0.045-0.745,0.06
	c-0.438,0.03-0.891,0.052-1.336,0.075c-0.236,0.007-0.46,0.022-0.703,0.037c-0.468,0.015-0.935,0.022-1.403,0.037
	c-0.213,0-0.423,0.007-0.636,0.007c-0.498,0.007-0.995,0.007-1.482,0.007c-0.183-0.007-0.367-0.007-0.554-0.007
	c-0.52-0.007-1.036-0.022-1.557-0.03c-0.153-0.007-0.307-0.007-0.46-0.015c-0.554-0.022-1.104-0.045-1.658-0.075
	c-0.108,0-0.221-0.007-0.329-0.015c-0.599-0.037-1.19-0.075-1.777-0.109c-9.56-0.674-17.298-2.462-17.452-2.5
	c-0.973-0.228-1.957,0.367-2.193,1.343s0.367,1.957,1.343,2.2c0.554,0.123,5.852,1.351,13.044,2.163l0,0c0.007,0,0.015,0,0.022,0
	c1.732,0.198,3.581,0.367,5.497,0.49c0.198,0.015,0.393,0.022,0.584,0.037c0.73,0.045,1.463,0.079,2.208,0.109
	c0.254,0.007,0.505,0.015,0.767,0.022c0.943,0.03,1.893,0.052,2.851,0.052c9.478,0,19.566-1.512,26.17-6.739
	c4.883-3.85,7.353-9.276,7.353-16.123C306.849,178.339,304.892,172.001,300.705,168.188z"/>
<g>
	<path style="fill:#5A5A5A;" d="M196.103,165.067h-10.297c0,0.131-0.015,0.254-0.015,0.389c0,2.26,0.161,4.486,0.453,6.672h9.86
		L196.103,165.067L196.103,165.067z"/>
	<path style="fill:#5A5A5A;" d="M287.964,165.067h-10.803v7.061h10.365c0.277-2.185,0.445-4.415,0.445-6.672
		C287.972,165.322,287.964,165.198,287.964,165.067z"/>
</g>
<g style="opacity:0.6;">
	<path style="fill:#D8E4E1;" d="M219.729,186.309c0,0,8.494,2.178,17.051,2.178s16.516-2.178,16.516-2.178l-16.546-25.953
		L219.729,186.309z"/>
</g>
<g style="opacity:0.8;">
	<path style="fill:#CAD8D4;" d="M243.313,186.624c0,2.148-3.85,2.791-6.578,2.791l0,0c-2.728,0-6.571-0.644-6.571-2.791l2.66-16.61
		c0-2.155,1.182-3.91,3.91-3.91l0,0c2.728,0,3.91,1.755,3.91,3.91L243.313,186.624z"/>
</g>
<g style="opacity:0.8;">
	<path style="fill:#BDD2CE;" d="M236.735,189.415L236.735,189.415c-2.728,0-6.571-0.644-6.571-2.791l2.66-16.61
		c0-2.155,1.182-3.91,3.91-3.91l0,0V189.415z"/>
</g>
<g style="opacity:0.6;">
	<path style="fill:#ECECEC;" d="M277.809,156.304l-2.529-2.271c-2.14-1.725-7.076-5.16-18.219-5.504v-0.015h-0.707
		c-0.745-0.015-1.512-0.015-2.294,0h-36.423c-4.778-0.094-8.587,0.389-11.618,1.119c-4.947,3.012-9.122,6.08-12.374,8.718
		c-0.022,0.344-0.052,0.707-0.067,1.141c-0.198,4.677,1.111,0.965,3.012-0.307c1.901-1.287,11.914-6.657,30.956-2.507
		c2.294,0.505,14.309,0.505,16.606,0c19.046-4.15,29.059,1.22,30.956,2.507c1.901,1.272,3.252,4.363,2.967-0.576
		C278.011,157.539,277.925,156.809,277.809,156.304z"/>
</g>
<path style="fill:#377EC0;" d="M278.924,157.108c-1.74-1.373-8.655-5.841-21.141-6.234v-0.022h-0.703
	c-0.737-0.007-1.497-0.007-2.271,0H218.7c-14.376-0.284-22.245,4.778-24.116,6.256c-2.5,1.979-0.606,18.417,1.463,22.028
	c2.062,3.618,12.905,9.295,19.88,9.384c4.026,0.045,9.89-6.825,14.447-14.316c0.883-1.197,3.529-4.408,6.41-4.408
	c3.543,0,6.615,4.846,6.615,4.846l-0.007-0.045c4.516,7.338,10.245,13.964,14.2,13.923c6.971-0.086,17.811-5.766,19.88-9.384
	C279.527,175.525,281.416,159.088,278.924,157.108z M215.781,182.773c-4.853-0.06-12.397-3.996-13.833-6.518
	c-1.433-2.514-2.746-13.946-1.014-15.319c1.74-1.373,10.874-7.162,28.247-2.69c2.099,0.535,1.703,1.826,1.257,4.187
	C229.297,168.48,220.62,182.841,215.781,182.773z M271.553,176.255c-1.441,2.522-8.98,6.462-13.818,6.518
	c-4.853,0.067-13.527-14.294-14.668-20.34c-0.445-2.361-0.834-3.656,1.265-4.187c17.373-4.471,26.499,1.317,28.239,2.69
	C274.299,162.309,272.993,173.741,271.553,176.255z"/>
<path style="fill:#D8E4E1;" d="M215.052,182.728c-4.393-1.19-9.654-3.697-12.928-6.234
	C203.774,178.886,210.375,182.35,215.052,182.728z"/>
<g style="opacity:0.6;">
	<path style="fill:#D8E4E1;" d="M230.434,162.437c0.445-2.361,0.842-3.656-1.257-4.187c-17.373-4.471-26.507,1.317-28.247,2.69
		c-1.732,1.373-0.415,12.804,1.014,15.319c0.052,0.079,0.116,0.161,0.176,0.239c3.274,2.537,8.535,5.044,12.928,6.234
		c0.247,0.03,0.498,0.045,0.73,0.045C220.62,182.841,229.297,168.48,230.434,162.437z"/>
</g>
<path style="fill:#D8E4E1;" d="M271.377,176.502c-3.267,2.537-8.505,5.036-12.89,6.226
	C263.156,182.328,269.712,178.893,271.377,176.502z"/>
<g style="opacity:0.6;">
	<path style="fill:#D8E4E1;" d="M272.567,160.936c-1.74-1.373-10.866-7.162-28.239-2.69c-2.099,0.535-1.71,1.826-1.265,4.187
		c1.141,6.043,9.815,20.404,14.668,20.34c0.239,0,0.498-0.015,0.752-0.045c4.385-1.19,9.624-3.689,12.89-6.226
		c0.06-0.079,0.131-0.161,0.176-0.247C272.993,173.741,274.299,162.309,272.567,160.936z"/>
</g>
<path style="fill:#5A5A5A;" d="M274.95,159.503c-1.373-1.081-6.732-4.539-16.363-5.014v-0.045h-1.336
	c-0.614-0.015-1.242-0.015-1.878,0h-37.238c-0.644-0.015-1.265-0.015-1.878,0h-0.928v0.022c-9.897,0.393-15.375,3.933-16.771,5.036
	c-2.017,1.601-0.49,14.9,1.182,17.826c1.673,2.93,10.451,7.528,16.093,7.6c4.333,0.052,11.304-9.822,14.9-17.583l-0.03,0.116
	c0,0,2.544-6.196,6.073-6.196c2.559,0,4.599,3.244,5.527,5.036c3.42,7.891,10.836,18.679,15.368,18.63
	c5.643-0.075,14.421-4.67,16.086-7.6C275.433,174.407,276.967,161.105,274.95,159.503z M230.434,162.437
	c-1.141,6.043-9.815,20.404-14.653,20.34c-4.853-0.06-12.397-3.996-13.833-6.518c-1.433-2.514-2.746-13.946-1.014-15.319
	c1.74-1.373,10.874-7.162,28.247-2.69C231.276,158.781,230.883,160.076,230.434,162.437z M271.553,176.255
	c-1.441,2.522-8.98,6.462-13.818,6.518c-4.853,0.067-13.527-14.294-14.668-20.34c-0.445-2.361-0.834-3.656,1.265-4.187
	c17.373-4.471,26.499,1.317,28.239,2.69C274.299,162.309,272.993,173.741,271.553,176.255z"/>
<polygon style="fill:#525252;" points="259.785,210.376 250.382,209.542 250.382,203.776 259.785,206.058 "/>
<circle style="fill:#5A5A5A;" cx="236.694" cy="205.811" r="15.042"/>
<circle style="fill:#717171;" cx="236.694" cy="205.811" r="5.242"/>
<circle style="fill:#5A5A5A;" cx="236.694" cy="205.811" r="4.108"/>
<path style="fill:#525252;" d="M234.528,203.768c1.036-1.044,2.537-1.235,3.341-0.43c0.804,0.804-2.967,4.576-3.764,3.772
	C233.293,206.305,233.491,204.816,234.528,203.768z"/>
<g>
	<path style="fill:#676767;" d="M228.271,205.231c0-4.325,3.502-7.843,7.835-7.843v-3.704c-6.372,0-11.547,5.167-11.547,11.547
		c0,0.022,0.007,0.037,0.007,0.06h3.704C228.271,205.269,228.271,205.254,228.271,205.231z"/>
	<path style="fill:#676767;" d="M228.271,206.35c0,4.326,3.502,7.835,7.835,7.835v3.712c-6.372,0-11.547-5.167-11.547-11.547
		c0-0.022,0.007-0.045,0.007-0.067h3.704C228.271,206.305,228.271,206.328,228.271,206.35z"/>
	<path style="fill:#676767;" d="M245.076,205.231c0-4.325-3.514-7.843-7.843-7.843v-3.704c6.38,0,11.547,5.167,11.547,11.547
		c0,0.022,0,0.037,0,0.06h-3.712C245.068,205.269,245.076,205.254,245.076,205.231z"/>
	<path style="fill:#676767;" d="M245.076,206.35c0,4.326-3.514,7.835-7.843,7.835v3.712c6.38,0,11.547-5.167,11.547-11.547
		c0-0.022,0-0.045,0-0.067h-3.712C245.068,206.305,245.076,206.328,245.076,206.35z"/>
</g>
<g>
	<path style="fill:#E9C29C;" d="M418.044,188.487c0,28.232-22.881,51.098-51.098,51.098s-51.083-22.866-51.083-51.098
		c0-28.209,22.866-51.083,51.083-51.083S418.044,160.278,418.044,188.487z"/>
	<path style="fill:#E9C29C;" d="M377.075,228.969c0.236-0.98,1.227-1.572,2.2-1.351c0.153,0.037,7.805,1.811,17.306,2.492
		c12.46-8.887,20.756-23.233,21.407-39.551c-4.019-0.168-8.741,0.269-13.994,0.767c-5.108,0.483-10.896,1.029-16.868,1.029
		c-1.01,0-1.818-0.819-1.818-1.819c0-1.01,0.812-1.826,1.818-1.826c5.804,0,11.248-0.513,16.524-1.01
		c5.175-0.49,10.028-0.935,14.353-0.76c-0.827-27.495-23.356-49.534-51.057-49.534c-28.217,0-51.083,22.874-51.083,51.083
		c0,28.232,22.866,51.098,51.083,51.098c8.887,0,17.246-2.264,24.527-6.256c-7.192-0.812-12.49-2.039-13.044-2.17
		C377.449,230.926,376.847,229.95,377.075,228.969z"/>
	<path style="fill:#E9C29C;" d="M379.275,227.615c-0.973-0.221-1.964,0.374-2.2,1.351c-0.228,0.98,0.374,1.957,1.351,2.193
		c0.554,0.131,5.852,1.358,13.044,2.17c1.77-0.973,3.472-2.054,5.108-3.222C387.08,229.43,379.428,227.652,379.275,227.615z"/>
</g>
<path style="fill:#343433;" d="M393.217,192.902c0,4.086-3.136,7.39-7.001,7.39c-3.865,0-6.993-3.304-6.993-7.39
	c0-4.094,3.128-7.405,6.993-7.405C390.081,185.497,393.217,188.809,393.217,192.902z"/>
<path style="fill:#FFFFFF;" d="M391.2,190.096c0,1.624-1.242,2.96-2.799,2.96c-1.534,0-2.791-1.336-2.791-2.96
	c0-1.639,1.257-2.96,2.791-2.96C389.958,187.136,391.2,188.461,391.2,190.096z"/>
<path style="fill:#343433;" d="M354.991,192.902c0,4.086-3.128,7.39-6.993,7.39c-3.865,0-7.001-3.304-7.001-7.39
	c0-4.094,3.136-7.405,7.001-7.405C351.863,185.497,354.991,188.809,354.991,192.902z"/>
<path style="fill:#FFFFFF;" d="M352.907,190.096c0,1.624-1.257,2.96-2.806,2.96c-1.542,0-2.791-1.336-2.791-2.96
	c0-1.639,1.25-2.96,2.791-2.96C351.649,187.136,352.907,188.461,352.907,190.096z"/>
<path style="fill:#6B491E;" d="M418.044,188.487l-34.84-31.337c0,0-16.378,0.752-36.161,9.699
	c-19.076,8.632-31.184,21.639-31.184,21.639c0-28.209,22.866-51.083,51.083-51.083C395.159,137.404,418.044,160.278,418.044,188.487
	z"/>
<path style="fill:#525252;" d="M430.773,191.222c-3.289-2.982-7.667-4.071-12.774-4.284c0.015,0.52,0.045,1.029,0.045,1.549
	c0,0.696-0.03,1.381-0.06,2.069c4.303,0.191,7.82,1.074,10.335,3.36c3.334,3.035,4.947,8.681,4.947,17.261
	c0,5.751-1.946,10.092-5.957,13.257c-0.445,0.359-0.921,0.696-1.411,1.01c-0.161,0.101-0.322,0.198-0.49,0.292
	c-0.344,0.213-0.674,0.423-1.029,0.606c-0.206,0.109-0.415,0.206-0.629,0.307c-0.329,0.168-0.651,0.337-1.003,0.49
	c-0.228,0.094-0.46,0.183-0.696,0.284c-0.337,0.138-0.674,0.277-1.014,0.4c-0.247,0.086-0.505,0.168-0.752,0.254
	c-0.344,0.116-0.688,0.236-1.044,0.344c-0.262,0.075-0.52,0.138-0.782,0.221c-0.367,0.094-0.722,0.191-1.089,0.284
	c-0.262,0.067-0.528,0.116-0.789,0.176c-0.382,0.086-0.76,0.161-1.149,0.239c-0.262,0.052-0.535,0.101-0.797,0.146
	c-0.393,0.075-0.782,0.131-1.175,0.198c-0.269,0.037-0.535,0.075-0.804,0.109c-0.408,0.052-0.819,0.109-1.227,0.153
	c-0.254,0.03-0.52,0.06-0.775,0.079c-0.423,0.045-0.857,0.079-1.295,0.116c-0.239,0.015-0.49,0.037-0.737,0.052
	c-0.445,0.03-0.891,0.052-1.343,0.079c-0.236,0.007-0.46,0.015-0.696,0.03c-0.468,0.015-0.935,0.022-1.403,0.037
	c-0.221,0.007-0.43,0.015-0.644,0.015c-0.49,0.007-0.988,0.007-1.482,0c-0.176,0-0.359,0-0.546,0
	c-0.52-0.007-1.044-0.022-1.564-0.037c-0.146,0-0.299-0.007-0.453-0.015c-0.561-0.022-1.111-0.037-1.658-0.067
	c-0.116-0.007-0.221-0.007-0.337-0.015c-0.591-0.037-1.182-0.075-1.77-0.116c-9.568-0.666-17.298-2.462-17.452-2.5
	c-0.973-0.221-1.964,0.374-2.2,1.351c-0.228,0.98,0.374,1.957,1.351,2.193c0.554,0.131,5.852,1.358,13.044,2.17l0,0
	c0,0,0.007,0,0.015,0c1.74,0.198,3.588,0.367,5.504,0.49c0.198,0.015,0.389,0.022,0.584,0.03c0.722,0.045,1.456,0.079,2.2,0.109
	c0.254,0.007,0.513,0.022,0.775,0.03c0.943,0.03,1.886,0.052,2.851,0.052c9.478,0,19.566-1.512,26.17-6.739
	c4.876-3.85,7.345-9.276,7.345-16.123C436.914,201.381,434.964,195.035,430.773,191.222z"/>
<g>
	<path style="fill:#5A5A5A;" d="M326.164,188.109H315.87c0,0.123-0.007,0.254-0.007,0.382c0,2.264,0.161,4.494,0.445,6.679h9.86
		v-7.061H326.164z"/>
	<path style="fill:#5A5A5A;" d="M418.029,188.109h-10.795v7.061h10.357c0.284-2.185,0.453-4.415,0.453-6.679
		C418.044,188.363,418.029,188.232,418.029,188.109z"/>
</g>
<g style="opacity:0.6;">
	<path style="fill:#D8E4E1;" d="M349.794,209.355c0,0,8.494,2.178,17.051,2.178c8.557,0,16.524-2.178,16.524-2.178l-16.546-25.961
		L349.794,209.355z"/>
</g>
<g style="opacity:0.8;">
	<path style="fill:#CAD8D4;" d="M373.378,209.662c0,2.155-3.843,2.799-6.578,2.799l0,0c-2.72,0-6.571-0.644-6.571-2.799l2.66-16.61
		c0-2.155,1.19-3.903,3.91-3.903l0,0c2.732,0,3.918,1.747,3.918,3.903L373.378,209.662z"/>
</g>
<g style="opacity:0.8;">
	<path style="fill:#BDD2CE;" d="M366.8,212.461L366.8,212.461c-2.72,0-6.571-0.644-6.571-2.799l2.66-16.61
		c0-2.155,1.19-3.903,3.91-3.903l0,0V212.461z"/>
</g>
<g style="opacity:0.6;">
	<path style="fill:#ECECEC;" d="M407.87,179.338l-2.529-2.271c-2.133-1.717-7.068-5.152-18.211-5.497v-0.015h-0.715
		c-0.745-0.022-1.504-0.022-2.294,0h-36.423c-4.778-0.094-8.58,0.382-11.615,1.111c-4.954,3.012-9.126,6.08-12.374,8.718
		c-0.03,0.344-0.052,0.707-0.075,1.149c-0.198,4.677,1.111,0.965,3.02-0.314c1.901-1.28,11.914-6.649,30.956-2.5
		c2.294,0.498,14.309,0.498,16.599,0c19.046-4.15,29.059,1.22,30.963,2.5c1.893,1.28,3.252,4.363,2.967-0.569
		C408.083,180.581,407.99,179.851,407.87,179.338z"/>
</g>
<path style="fill:#377EC0;" d="M408.996,180.15c-1.747-1.381-8.655-5.841-21.149-6.234v-0.022h-0.696
	c-0.745-0.015-1.504-0.015-2.279,0h-36.101c-14.376-0.292-22.245,4.771-24.116,6.256c-2.5,1.979-0.614,18.417,1.463,22.028
	c2.062,3.618,12.905,9.295,19.873,9.377c4.034,0.052,9.897-6.825,14.447-14.316c0.883-1.197,3.529-4.4,6.41-4.4
	c3.551,0,6.615,4.846,6.615,4.846l-0.007-0.045c4.516,7.33,10.245,13.964,14.208,13.916c6.971-0.079,17.811-5.759,19.873-9.377
	C409.595,198.567,411.488,182.13,408.996,180.15z M345.846,205.815c-4.853-0.06-12.389-4.004-13.826-6.518
	c-1.433-2.514-2.746-13.946-1.014-15.319c1.732-1.373,10.866-7.169,28.247-2.698c2.092,0.543,1.695,1.833,1.257,4.187
	C359.369,191.514,350.692,205.883,345.846,205.815z M401.621,199.297c-1.441,2.514-8.98,6.462-13.826,6.518
	c-4.846,0.067-13.519-14.301-14.668-20.348c-0.438-2.354-0.834-3.648,1.265-4.187c17.381-4.471,26.507,1.325,28.247,2.698
	C404.371,185.355,403.054,196.782,401.621,199.297z"/>
<path style="fill:#D8E4E1;" d="M345.124,205.774c-4.4-1.197-9.661-3.697-12.935-6.234
	C333.846,201.927,340.439,205.385,345.124,205.774z"/>
<g style="opacity:0.6;">
	<path style="fill:#D8E4E1;" d="M360.506,185.471c0.438-2.354,0.834-3.648-1.257-4.187c-17.381-4.471-26.514,1.325-28.247,2.698
		c-1.732,1.373-0.415,12.804,1.014,15.319c0.045,0.075,0.109,0.153,0.168,0.239c3.274,2.537,8.535,5.036,12.935,6.234
		c0.239,0.022,0.49,0.045,0.722,0.045C350.692,205.883,359.369,191.514,360.506,185.471z"/>
</g>
<path style="fill:#D8E4E1;" d="M401.449,199.548c-3.267,2.537-8.505,5.036-12.89,6.226
	C393.224,205.37,399.773,201.935,401.449,199.548z"/>
<g style="opacity:0.6;">
	<path style="fill:#D8E4E1;" d="M402.639,183.978c-1.74-1.373-10.866-7.169-28.247-2.698c-2.099,0.543-1.703,1.833-1.265,4.187
		c1.149,6.043,9.822,20.411,14.668,20.348c0.239,0,0.498-0.022,0.76-0.045c4.385-1.19,9.624-3.689,12.89-6.226
		c0.06-0.079,0.123-0.168,0.176-0.247C403.054,196.782,404.371,185.355,402.639,183.978z"/>
</g>
<path style="fill:#5A5A5A;" d="M405.015,182.541c-1.373-1.081-6.724-4.539-16.355-5.007v-0.052h-1.343
	c-0.614-0.007-1.235-0.007-1.878,0h-37.227c-0.644-0.007-1.272-0.007-1.878,0h-0.935v0.03c-9.89,0.389-15.375,3.925-16.771,5.029
	c-2.009,1.609-0.49,14.907,1.182,17.833c1.673,2.926,10.451,7.528,16.093,7.592c4.34,0.06,11.304-9.815,14.9-17.583l-0.03,0.123
	c0,0,2.552-6.196,6.073-6.196c2.559,0,4.599,3.244,5.534,5.036c3.413,7.884,10.832,18.679,15.36,18.623
	c5.65-0.067,14.425-4.67,16.093-7.592C405.505,197.449,407.039,184.146,405.015,182.541z M360.506,185.471
	c-1.141,6.043-9.815,20.411-14.66,20.348c-4.853-0.06-12.389-4.004-13.826-6.518c-1.433-2.514-2.746-13.946-1.014-15.319
	c1.732-1.373,10.866-7.169,28.247-2.698C361.341,181.823,360.944,183.117,360.506,185.471z M401.621,199.297
	c-1.441,2.514-8.98,6.462-13.826,6.518c-4.846,0.067-13.519-14.301-14.668-20.348c-0.438-2.354-0.834-3.648,1.265-4.187
	c17.381-4.471,26.507,1.325,28.247,2.698C404.371,185.355,403.054,196.782,401.621,199.297z"/>
<polygon style="fill:#525252;" points="389.857,233.418 380.443,232.588 380.443,226.822 389.857,229.093 "/>
<circle style="fill:#5A5A5A;" cx="366.796" cy="228.861" r="15.042"/>
<circle style="fill:#717171;" cx="366.796" cy="228.861" r="5.242"/>
<circle style="fill:#5A5A5A;" cx="366.796" cy="228.861" r="4.108"/>
<path style="fill:#525252;" d="M364.592,226.814c1.044-1.044,2.544-1.235,3.341-0.43c0.804,0.804-2.96,4.576-3.764,3.772
	C363.358,229.347,363.556,227.851,364.592,226.814z"/>
<g>
	<path style="fill:#676767;" d="M358.336,228.266c0-4.326,3.51-7.835,7.835-7.835v-3.712c-6.372,0-11.54,5.167-11.54,11.547
		c0,0.03,0,0.045,0,0.067h3.712C358.344,228.311,358.336,228.296,358.336,228.266z"/>
	<path style="fill:#676767;" d="M358.336,229.385c0,4.333,3.51,7.843,7.835,7.843v3.704c-6.372,0-11.54-5.167-11.54-11.547
		c0-0.022,0-0.037,0-0.06h3.712C358.344,229.347,358.336,229.362,358.336,229.385z"/>
	<path style="fill:#676767;" d="M375.137,228.266c0-4.326-3.51-7.835-7.835-7.835v-3.712c6.372,0,11.54,5.167,11.54,11.547
		c0,0.03,0,0.045,0,0.067h-3.712C375.129,228.311,375.137,228.296,375.137,228.266z"/>
	<path style="fill:#676767;" d="M375.137,229.385c0,4.333-3.51,7.843-7.835,7.843v3.704c6.372,0,11.54-5.167,11.54-11.547
		c0-0.022,0-0.037,0-0.06h-3.712C375.129,229.347,375.137,229.362,375.137,229.385z"/>
</g>
<g>
	<path style="fill:#E9C29C;" d="M157.975,188.487c0,28.232-22.881,51.098-51.098,51.098s-51.083-22.866-51.083-51.098
		c0-28.209,22.866-51.083,51.083-51.083S157.975,160.278,157.975,188.487z"/>
	<path style="fill:#E9C29C;" d="M117.006,228.969c0.236-0.98,1.227-1.572,2.2-1.351c0.153,0.037,7.805,1.811,17.306,2.492
		c12.46-8.887,20.756-23.233,21.407-39.551c-4.019-0.168-8.741,0.269-13.994,0.767c-5.108,0.483-10.896,1.029-16.868,1.029
		c-1.01,0-1.819-0.819-1.819-1.819c0-1.01,0.812-1.826,1.819-1.826c5.804,0,11.248-0.513,16.524-1.01
		c5.175-0.49,10.028-0.935,14.354-0.76c-0.827-27.495-23.356-49.534-51.057-49.534c-28.217,0-51.083,22.874-51.083,51.083
		c0,28.232,22.866,51.098,51.083,51.098c8.887,0,17.246-2.264,24.527-6.256c-7.192-0.812-12.49-2.039-13.044-2.17
		C117.38,230.926,116.777,229.95,117.006,228.969z"/>
	<path style="fill:#E9C29C;" d="M119.206,227.615c-0.973-0.221-1.964,0.374-2.2,1.351c-0.228,0.98,0.374,1.957,1.351,2.193
		c0.554,0.131,5.852,1.358,13.044,2.17c1.77-0.973,3.472-2.054,5.108-3.222C127.011,229.43,119.359,227.652,119.206,227.615z"/>
</g>
<path style="fill:#343433;" d="M133.148,192.902c0,4.086-3.136,7.39-7.001,7.39c-3.865,0-6.993-3.304-6.993-7.39
	c0-4.094,3.128-7.405,6.993-7.405C130.012,185.497,133.148,188.809,133.148,192.902z"/>
<path style="fill:#FFFFFF;" d="M131.131,190.096c0,1.624-1.242,2.96-2.799,2.96c-1.534,0-2.791-1.336-2.791-2.96
	c0-1.639,1.257-2.96,2.791-2.96C129.889,187.136,131.131,188.461,131.131,190.096z"/>
<path style="fill:#343433;" d="M94.922,192.902c0,4.086-3.128,7.39-6.993,7.39c-3.865,0-7.001-3.304-7.001-7.39
	c0-4.094,3.136-7.405,7.001-7.405C91.794,185.497,94.922,188.809,94.922,192.902z"/>
<path style="fill:#FFFFFF;" d="M92.837,190.096c0,1.624-1.257,2.96-2.806,2.96c-1.542,0-2.791-1.336-2.791-2.96
	c0-1.639,1.25-2.96,2.791-2.96C91.58,187.136,92.837,188.461,92.837,190.096z"/>
<path style="fill:#6B491E;" d="M157.975,188.487l-34.84-31.337c0,0-16.378,0.752-36.161,9.699
	c-19.076,8.632-31.184,21.639-31.184,21.639c0-28.209,22.866-51.083,51.083-51.083S157.975,160.278,157.975,188.487z"/>
<path style="fill:#525252;" d="M170.708,191.222c-3.289-2.982-7.667-4.071-12.774-4.284c0.015,0.52,0.045,1.029,0.045,1.549
	c0,0.696-0.03,1.381-0.06,2.069c4.303,0.191,7.82,1.074,10.335,3.36c3.334,3.035,4.947,8.681,4.947,17.261
	c0,5.751-1.946,10.092-5.957,13.257c-0.445,0.359-0.92,0.696-1.411,1.01c-0.161,0.101-0.322,0.198-0.49,0.292
	c-0.344,0.213-0.674,0.423-1.029,0.606c-0.206,0.109-0.415,0.206-0.629,0.307c-0.329,0.168-0.651,0.337-1.003,0.49
	c-0.228,0.094-0.46,0.183-0.696,0.284c-0.337,0.138-0.674,0.277-1.014,0.4c-0.247,0.086-0.505,0.168-0.752,0.254
	c-0.344,0.116-0.688,0.236-1.044,0.344c-0.262,0.075-0.52,0.138-0.782,0.221c-0.367,0.094-0.722,0.191-1.089,0.284
	c-0.262,0.067-0.528,0.116-0.79,0.176c-0.382,0.086-0.76,0.161-1.149,0.239c-0.262,0.052-0.535,0.101-0.797,0.146
	c-0.393,0.075-0.782,0.131-1.175,0.198c-0.269,0.037-0.535,0.075-0.804,0.109c-0.408,0.052-0.819,0.109-1.227,0.153
	c-0.254,0.03-0.52,0.06-0.775,0.079c-0.423,0.045-0.857,0.079-1.295,0.116c-0.239,0.015-0.49,0.037-0.737,0.052
	c-0.445,0.03-0.891,0.052-1.343,0.079c-0.236,0.007-0.46,0.015-0.696,0.03c-0.468,0.015-0.935,0.022-1.403,0.037
	c-0.221,0.007-0.43,0.015-0.644,0.015c-0.49,0.007-0.988,0.007-1.482,0c-0.176,0-0.359,0-0.546,0
	c-0.52-0.007-1.044-0.022-1.564-0.037c-0.146,0-0.299-0.007-0.453-0.015c-0.561-0.022-1.111-0.037-1.658-0.067
	c-0.116-0.007-0.221-0.007-0.337-0.015c-0.591-0.037-1.182-0.075-1.77-0.116c-9.568-0.666-17.298-2.462-17.452-2.5
	c-0.973-0.221-1.964,0.374-2.2,1.351c-0.228,0.98,0.374,1.957,1.351,2.193c0.554,0.131,5.852,1.358,13.044,2.17l0,0
	c0,0,0.007,0,0.015,0c1.74,0.198,3.588,0.367,5.504,0.49c0.198,0.015,0.389,0.022,0.584,0.03c0.722,0.045,1.456,0.079,2.2,0.109
	c0.254,0.007,0.513,0.022,0.775,0.03c0.943,0.03,1.886,0.052,2.851,0.052c9.478,0,19.566-1.512,26.17-6.739
	c4.876-3.85,7.345-9.276,7.345-16.123C176.844,201.381,174.895,195.035,170.708,191.222z"/>
<g>
	<path style="fill:#5A5A5A;" d="M66.099,188.109H55.801c0,0.123-0.007,0.254-0.007,0.382c0,2.264,0.161,4.494,0.445,6.679h9.86
		C66.099,195.17,66.099,188.109,66.099,188.109z"/>
	<path style="fill:#5A5A5A;" d="M157.96,188.109h-10.795v7.061h10.357c0.284-2.185,0.453-4.415,0.453-6.679
		C157.975,188.363,157.96,188.232,157.96,188.109z"/>
</g>
<g style="opacity:0.6;">
	<path style="fill:#D8E4E1;" d="M89.724,209.355c0,0,8.494,2.178,17.051,2.178s16.524-2.178,16.524-2.178l-16.546-25.961
		L89.724,209.355z"/>
</g>
<g style="opacity:0.8;">
	<path style="fill:#CAD8D4;" d="M113.309,209.662c0,2.155-3.843,2.799-6.578,2.799l0,0c-2.72,0-6.571-0.644-6.571-2.799l2.66-16.61
		c0-2.155,1.19-3.903,3.91-3.903l0,0c2.732,0,3.918,1.747,3.918,3.903L113.309,209.662z"/>
</g>
<g style="opacity:0.8;">
	<path style="fill:#BDD2CE;" d="M106.731,212.461L106.731,212.461c-2.72,0-6.571-0.644-6.571-2.799l2.66-16.61
		c0-2.155,1.19-3.903,3.91-3.903l0,0L106.731,212.461L106.731,212.461z"/>
</g>
<g style="opacity:0.6;">
	<path style="fill:#ECECEC;" d="M147.801,179.338l-2.529-2.271c-2.133-1.717-7.068-5.152-18.211-5.497v-0.015h-0.715
		c-0.745-0.022-1.504-0.022-2.294,0H87.629c-4.778-0.094-8.58,0.382-11.615,1.111c-4.954,3.012-9.126,6.08-12.374,8.718
		c-0.03,0.344-0.052,0.707-0.075,1.149c-0.198,4.677,1.111,0.965,3.02-0.314c1.901-1.28,11.914-6.649,30.956-2.5
		c2.294,0.498,14.309,0.498,16.599,0c19.046-4.15,29.059,1.22,30.963,2.5c1.893,1.28,3.252,4.363,2.967-0.569
		C148.014,180.581,147.92,179.851,147.801,179.338z"/>
</g>
<path style="fill:#377EC0;" d="M148.927,180.15c-1.747-1.381-8.655-5.841-21.149-6.234v-0.022h-0.696
	c-0.745-0.015-1.504-0.015-2.279,0H88.703c-14.376-0.292-22.245,4.771-24.116,6.256c-2.5,1.979-0.614,18.417,1.463,22.028
	c2.062,3.618,12.905,9.295,19.873,9.377c4.034,0.052,9.897-6.825,14.447-14.316c0.883-1.197,3.529-4.4,6.41-4.4
	c3.551,0,6.615,4.846,6.615,4.846l-0.007-0.045c4.516,7.33,10.245,13.964,14.208,13.916c6.971-0.079,17.811-5.759,19.873-9.377
	C149.526,198.567,151.419,182.13,148.927,180.15z M85.777,205.815c-4.853-0.06-12.389-4.004-13.826-6.518
	c-1.433-2.514-2.746-13.946-1.014-15.319c1.732-1.373,10.866-7.169,28.247-2.698c2.092,0.543,1.695,1.833,1.257,4.187
	C99.3,191.514,90.622,205.883,85.777,205.815z M141.556,199.297c-1.441,2.514-8.98,6.462-13.826,6.518
	c-4.846,0.067-13.519-14.301-14.668-20.348c-0.438-2.354-0.834-3.648,1.265-4.187c17.381-4.471,26.507,1.325,28.247,2.698
	C144.302,185.355,142.985,196.782,141.556,199.297z"/>
<path style="fill:#D8E4E1;" d="M85.055,205.774c-4.4-1.197-9.661-3.697-12.935-6.234C73.777,201.927,80.37,205.385,85.055,205.774z"
	/>
<g style="opacity:0.6;">
	<path style="fill:#D8E4E1;" d="M100.437,185.471c0.438-2.354,0.834-3.648-1.257-4.187c-17.381-4.471-26.514,1.325-28.247,2.698
		c-1.732,1.373-0.415,12.804,1.014,15.319c0.045,0.075,0.109,0.153,0.168,0.239c3.274,2.537,8.535,5.036,12.935,6.234
		c0.239,0.022,0.49,0.045,0.722,0.045C90.622,205.883,99.3,191.514,100.437,185.471z"/>
</g>
<path style="fill:#D8E4E1;" d="M141.38,199.548c-3.267,2.537-8.505,5.036-12.89,6.226
	C133.155,205.37,139.703,201.935,141.38,199.548z"/>
<g style="opacity:0.6;">
	<path style="fill:#D8E4E1;" d="M142.57,183.978c-1.74-1.373-10.866-7.169-28.247-2.698c-2.099,0.543-1.703,1.833-1.265,4.187
		c1.149,6.043,9.822,20.411,14.668,20.348c0.239,0,0.498-0.022,0.76-0.045c4.385-1.19,9.624-3.689,12.89-6.226
		c0.06-0.079,0.123-0.168,0.176-0.247C142.985,196.782,144.302,185.355,142.57,183.978z"/>
</g>
<path style="fill:#5A5A5A;" d="M144.946,182.541c-1.373-1.081-6.724-4.539-16.355-5.007v-0.052h-1.343
	c-0.614-0.007-1.235-0.007-1.878,0H88.142c-0.644-0.007-1.272-0.007-1.878,0h-0.935v0.03c-9.89,0.389-15.375,3.925-16.771,5.029
	c-2.009,1.609-0.49,14.907,1.182,17.833c1.673,2.926,10.451,7.528,16.093,7.592c4.34,0.06,11.304-9.815,14.9-17.583l-0.03,0.123
	c0,0,2.552-6.196,6.073-6.196c2.559,0,4.599,3.244,5.534,5.036c3.413,7.884,10.832,18.679,15.36,18.623
	c5.65-0.067,14.425-4.67,16.093-7.592C145.436,197.449,146.97,184.146,144.946,182.541z M100.437,185.471
	c-1.141,6.043-9.815,20.411-14.66,20.348c-4.853-0.06-12.389-4.004-13.826-6.518c-1.433-2.514-2.746-13.946-1.014-15.319
	c1.732-1.373,10.866-7.169,28.247-2.698C101.271,181.823,100.875,183.117,100.437,185.471z M141.556,199.297
	c-1.441,2.514-8.98,6.462-13.826,6.518c-4.846,0.067-13.519-14.301-14.668-20.348c-0.438-2.354-0.834-3.648,1.265-4.187
	c17.381-4.471,26.507,1.325,28.247,2.698C144.302,185.355,142.985,196.782,141.556,199.297z"/>
<polygon style="fill:#525252;" points="129.788,233.418 120.373,232.588 120.373,226.822 129.788,229.093 "/>
<circle style="fill:#5A5A5A;" cx="106.712" cy="228.861" r="15.042"/>
<circle style="fill:#717171;" cx="106.712" cy="228.861" r="5.242"/>
<circle style="fill:#5A5A5A;" cx="106.708" cy="228.861" r="4.108"/>
<path style="fill:#525252;" d="M104.523,226.814c1.044-1.044,2.544-1.235,3.341-0.43c0.804,0.804-2.96,4.576-3.764,3.772
	C103.288,229.347,103.487,227.851,104.523,226.814z"/>
<g>
	<path style="fill:#676767;" d="M98.267,228.266c0-4.326,3.51-7.835,7.835-7.835v-3.712c-6.372,0-11.54,5.167-11.54,11.547
		c0,0.03,0,0.045,0,0.067h3.712C98.274,228.311,98.267,228.296,98.267,228.266z"/>
	<path style="fill:#676767;" d="M98.267,229.385c0,4.333,3.51,7.843,7.835,7.843v3.704c-6.372,0-11.54-5.167-11.54-11.547
		c0-0.022,0-0.037,0-0.06h3.712C98.274,229.347,98.267,229.362,98.267,229.385z"/>
	<path style="fill:#676767;" d="M115.067,228.266c0-4.326-3.51-7.835-7.835-7.835v-3.712c6.372,0,11.54,5.167,11.54,11.547
		c0,0.03,0,0.045,0,0.067h-3.712C115.06,228.311,115.067,228.296,115.067,228.266z"/>
	<path style="fill:#676767;" d="M115.067,229.385c0,4.333-3.51,7.843-7.835,7.843v3.704c6.372,0,11.54-5.167,11.54-11.547
		c0-0.022,0-0.037,0-0.06h-3.712C115.06,229.347,115.067,229.362,115.067,229.385z"/>
</g>
<path style="fill:#5C5C5C;" d="M307.616,397.679c0,0-33.384-5.029-33.384-17.598h-69.04c0,12.569-33.317,17.598-33.317,17.598
	c-21.369,1.25-31.424,18.847-31.424,18.847l-14.623,29.728c33.156,17.643,70.97,27.689,111.15,27.689
	c41.957,0,81.346-10.919,115.535-30.043l-13.47-27.375C339.043,416.526,328.985,398.929,307.616,397.679z"/>
<path style="fill:#4A4A4A;" d="M307.616,396.459c0,0-33.384-3.809-33.384-16.378c0,0-7.959,15.618-17.65,20.602
	c-9.691,4.984-23.992,3.742-34.305,0c-10.312-3.749-17.085-20.602-17.085-20.602c0,12.569-33.317,16.378-33.317,16.378l-0.535,68.25
	c20.834,6.006,42.855,9.238,65.635,9.238c40.318,0,70.405-10.619,70.405-10.619L307.616,396.459z"/>
<path style="fill:#CAD8D4;" d="M251.044,408.003h-4.011v-6.189c0-6.058-10.518-6.058-10.518,0v6.189h-5.841v8.026h5.841v15.91
	c0,6.05,10.518,6.05,10.518,0v-15.91h4.011V408.003z"/>
<path style="fill:#D4DFDC;" d="M241.779,397.275c-2.63-0.007-5.261,1.512-5.261,4.539v6.189h-5.841v8.026h5.841v15.91
	c0,2.821,2.814,4.326,5.253,4.516L241.779,397.275z"/>
<path style="fill:#5A5A5A;" d="M222.142,417.05c-3.427,0-3.427-10.069,0-10.069l8.894,0.775v8.513L222.142,417.05z"/>
<path style="fill:#DFBB26;" d="M247.568,427.063v-5.912h-5.796l-0.138,52.684c10.881-0.206,21.583-1.141,32.052-2.769v-15.689
	C273.686,442.113,261.394,429.125,247.568,427.063z"/>
<path style="fill:#EDC92C;" d="M241.633,473.836l0.138-52.684h-5.789v5.875c-13.964,1.957-26.469,14.967-26.469,28.348v16.932
	c9.018,1.036,18.166,1.639,27.465,1.639C238.539,473.948,240.084,473.866,241.633,473.836z"/>
<g>
	<path style="fill:#444545;" d="M229.473,410.162c-0.015,0-0.022,0-0.037-0.007l-7.753-0.535c-0.292-0.022-0.52-0.277-0.498-0.569
		c0.022-0.292,0.284-0.513,0.569-0.498l7.753,0.535c0.292,0.022,0.52,0.277,0.498,0.569
		C229.989,409.941,229.757,410.162,229.473,410.162z"/>
	<path style="fill:#444545;" d="M221.716,415.501c0.015,0,0.022,0,0.037,0l7.753-0.535c0.292-0.022,0.52-0.277,0.498-0.576
		c-0.022-0.284-0.284-0.505-0.569-0.49l-7.753,0.535c-0.292,0.015-0.52,0.277-0.498,0.569
		C221.207,415.292,221.439,415.501,221.716,415.501z"/>
	<path style="fill:#444545;" d="M221.675,412.676c0.015,0,0.03,0,0.037,0l7.775-0.022c0.292,0,0.535-0.239,0.528-0.543
		c0-0.292-0.247-0.52-0.535-0.528l-7.768,0.015c-0.299,0-0.535,0.247-0.535,0.543C221.177,412.418,221.394,412.654,221.675,412.676z
		"/>
</g>
<path style="fill:#525252;" d="M242.457,399.505l-9.018-0.022c-41.044-0.067-56.654-0.943-68.864-16.584
	c-7.33-9.392-7.57-10.683-4.445-23.386c1.957-7.981,27.932-12.123,35.263-12.123c2.155,0,4.288,0.06,6.327,0.191
	c0.03-0.007,0.254-0.022,0.269,0.007c0.745-0.022,1.448-0.329,1.957-0.876c0.52-0.543,0.79-1.257,0.767-2.002
	c-0.045-1.616-1.497-2.675-2.885-2.732l-0.569-0.015c-0.898-0.037-2.638-0.108-4.898-0.108c-11.124,0-38.896,4.984-41.687,16.325
	c-3.551,14.425-2.821,17.568,5.467,28.179c13.826,17.699,31.858,18.615,76.568,18.746l5.736,0.015c1.542,0,2.799-1.25,2.806-2.791
	C245.255,400.777,244.006,399.513,242.457,399.505z"/>
<g>
	<path style="fill:#E9C29C;" d="M182.465,310.368c0,34.911,26.26,63.195,58.649,63.195c32.381,0,58.634-28.284,58.634-63.195
		c0-34.888-26.252-63.188-58.634-63.188C208.724,247.181,182.465,275.476,182.465,310.368z"/>
	<rect x="206.012" y="360.123" style="fill:#E9C29C;" width="67.652" height="19.936"/>
</g>
<path style="fill:#6B491E;" d="M180.133,312.4c0,0,10.084,54.132,61.672,54.132c51.581,0,60.276-54.132,60.276-54.132
	c0-37.257-27.304-67.483-60.972-67.483C207.437,244.917,180.133,275.143,180.133,312.4z"/>
<g style="opacity:0.9;">
	<path style="fill:#ECECEC;" d="M301.543,303.85c-9.261,1.747-23.147,4.041-37.878,5.392c-5.1-1.534-13.149-2.099-22.23-2.099
		s-17.13,0.561-22.222,2.092c-16.295-1.579-30.63-4.456-38.421-6.219c-0.389,3.076-0.659,6.189-0.659,9.384
		c0,0,0.116,0.621,0.382,1.688c7.783,1.68,22.305,4.524,37.979,6.181c5.036,3.252,13.426,5.89,22.941,5.89
		c9.5,0,17.875-2.63,22.918-5.875c14.11-1.396,27.925-3.648,37.197-5.328c0.382-1.616,0.535-2.559,0.535-2.559
		C302.086,309.496,301.865,306.656,301.543,303.85z M241.435,321.481c-7.835,0-14.185-3.514-14.185-6.181s6.35-3.487,14.185-3.487
		s14.185,0.819,14.185,3.487S249.27,321.481,241.435,321.481z"/>
</g>
<g>
	<path style="fill:#6B491E;" d="M192.294,299.061l0.299,1.175c-0.827,0.221-1.403,0.4-1.403,0.4l-3.341,13.074
		c0,0,3.106-3.252,6.402-7.061l1.411,5.474c0,0,1.272-4.823,2.376-10.069c0.834-1.134,0.883-1.819,0.445-2.185
		c0.168-0.861,0.322-1.725,0.46-2.567C200.021,290.907,192.294,299.061,192.294,299.061z"/>
	<path style="fill:#6B491E;" d="M246.236,297.197l0.307,1.175c-0.827,0.213-1.403,0.393-1.403,0.393l-3.341,13.081
		c0,0,3.106-3.252,6.395-7.061l1.411,5.474c0,0,1.28-4.823,2.376-10.069c0.834-1.141,0.883-1.826,0.445-2.185
		c0.168-0.868,0.329-1.725,0.468-2.567C253.97,289.04,246.236,297.197,246.236,297.197z"/>
	<path style="fill:#6B491E;" d="M239.635,315.622l-0.254,0.752c0.696,0.138,1.175,0.254,1.175,0.254l2.799,8.344
		c0,0-2.601-2.077-5.358-4.509l-1.19,3.495c0,0-1.059-3.076-1.987-6.425c-0.696-0.722-0.737-1.164-0.374-1.396
		c-0.138-0.546-0.269-1.096-0.389-1.639C233.162,310.417,239.635,315.622,239.635,315.622z"/>
	<path style="fill:#6B491E;" d="M289.749,303.345l-0.247,0.943c0.659,0.183,1.119,0.329,1.119,0.329l2.567,10.537
		c0,0-2.462-2.638-5.07-5.729l-1.182,4.385c0,0-0.98-3.888-1.819-8.112c-0.659-0.92-0.688-1.471-0.337-1.755
		c-0.131-0.703-0.24-1.396-0.344-2.069C283.624,296.722,289.749,303.345,289.749,303.345z"/>
</g>
<g>
</g>
<g>
</g>
<g>
</g>
<g>
</g>
<g>
</g>
<g>
</g>
<g>
</g>
<g>
</g>
<g>
</g>
<g>
</g>
<g>
</g>
<g>
</g>
<g>
</g>
<g>
</g>
<g>
</g>
</svg>
