<svg id="Capa_1" enable-background="new 0 0 512 512" height="512" viewBox="0 0 512 512" width="512" xmlns="http://www.w3.org/2000/svg"><circle cx="256" cy="256" fill="#19cffc" r="256"/><path d="m512 256c0-3.459-.089-6.897-.225-10.323l-137.68-137.681-6.572 72.055-61.726-61.726-5.158 5.188-59.149-59.148-48.86 43.631 164.49 164.49-27.102 6.938-139.225-139.224-18.248 19.421 127.482 127.482-219.948 56.312 168.47 168.47c2.476.071 4.958.116 7.451.116 141.385-.001 256-114.616 256-256.001z" fill="#1ea1e3"/><path d="m387.487 186.648h-262.974c-23.626 0-42.779 19.152-42.779 42.779v71.833c0 23.626 19.153 42.779 42.779 42.779h63.096c17.19 0 32.71-10.29 39.403-26.123l21.211-50.182c.534-1.263.979-2.532 1.384-3.804h12.784c.405 1.272.851 2.541 1.384 3.804l21.211 50.182c6.693 15.834 22.213 26.123 39.403 26.123h63.096c23.626 0 42.779-19.153 42.779-42.779v-71.833c.002-23.627-19.151-42.779-42.777-42.779z" fill="#fff"/><path d="m387.487 186.647h-131.648v77.282h6.553c.405 1.271.85 2.541 1.384 3.804l21.211 50.182c6.693 15.834 22.213 26.124 39.403 26.124h63.096c23.626 0 42.779-19.153 42.779-42.779v-71.833c.001-23.627-19.152-42.78-42.778-42.78z" fill="#e9edf5"/><path d="m387.487 362.538h-63.097c-24.68 0-46.836-14.688-56.443-37.421l-11.947-28.264-11.947 28.265c-9.607 22.732-31.764 37.421-56.443 37.421h-63.097c-33.789 0-61.278-27.49-61.278-61.279v-71.833c0-33.789 27.489-61.279 61.278-61.279h262.975c33.789 0 61.278 27.49 61.278 61.279v71.833c0 33.788-27.49 61.278-61.279 61.278zm-151.399-117.109h39.824l4.105 12.882c.292.916.546 1.62.797 2.214l21.213 50.187c3.807 9.007 12.585 14.826 22.363 14.826h63.097c13.387 0 24.278-10.892 24.278-24.279v-71.833c0-13.387-10.892-24.279-24.278-24.279h-262.974c-13.387 0-24.278 10.892-24.278 24.279v71.833c0 13.387 10.892 24.279 24.278 24.279h63.097c9.778 0 18.557-5.819 22.363-14.826l21.211-50.182c.253-.6.507-1.303.799-2.219z" fill="#4a7aff"/><path d="m387.487 168.147h-131.648v37h131.648c13.387 0 24.278 10.892 24.278 24.279v71.833c0 13.387-10.892 24.279-24.278 24.279h-63.097c-9.778 0-18.557-5.819-22.363-14.826l-21.213-50.187c-.251-.594-.505-1.298-.797-2.214l-4.105-12.882h-20.073v51.804l.161-.38 11.947 28.264c9.607 22.733 31.764 37.421 56.443 37.421h63.097c33.789 0 61.278-27.49 61.278-61.279v-71.833c.001-33.789-27.489-61.279-61.278-61.279z" fill="#0053bf"/><path d="m305.798 432.197c-37.659 0-68.298-30.638-68.298-68.297v-54.127h37v54.127c0 17.257 14.04 31.297 31.298 31.297 17.257 0 31.297-14.04 31.297-31.297v-255.903h37v255.903c0 37.659-30.638 68.297-68.297 68.297z" fill="#27488f"/><path d="m337.095 107.997v255.903c0 17.257-14.04 31.297-31.297 31.297-17.258 0-31.298-14.04-31.298-31.297v-54.127h-18.661v100.627c12.478 13.396 30.251 21.796 49.959 21.796 37.659 0 68.297-30.638 68.297-68.297v-255.902z" fill="#12254c"/><path d="m220.938 292.415h70.125v51h-70.125z" fill="#27488f"/><path d="m255.839 292.415h35.223v51h-35.223z" fill="#12254c"/><circle cx="288.388" cy="136.288" fill="#e9edf5" r="25.02"/><g fill="#fff"><circle cx="215.822" cy="84.789" r="32.81"/><circle cx="181.346" cy="149.654" r="13.366"/></g></svg>